<svg xmlns="http://www.w3.org/2000/svg" xmlns:xlink="http://www.w3.org/1999/xlink" width="128" height="128" viewBox="0 0 128 128">
  <defs>
    <linearGradient id="linear-gradient" x1="107.78" y1="106.22" x2="32.45" y2="30.88" gradientUnits="userSpaceOnUse">
      <stop offset="0" stop-color="#32141e"/>
      <stop offset="1" stop-color="#006e8c"/>
    </linearGradient>
    <linearGradient id="linear-gradient-2" x1="91.68" y1="122.32" x2="16.34" y2="46.98" xlink:href="#linear-gradient"/>
    <linearGradient id="linear-gradient-3" x1="83.63" y1="130.37" x2="8.29" y2="55.03" xlink:href="#linear-gradient"/>
    <linearGradient id="linear-gradient-4" x1="99.73" y1="114.27" x2="24.4" y2="38.93" xlink:href="#linear-gradient"/>
  </defs>
  <title>ap_settings</title>
  <g id="Layer_2" data-name="Layer 2">
    <g>
      <path d="M116.33,58.41A73.52,73.52,0,0,0,64,36.73a75,75,0,0,0-11.54.9C35.29,41.41,29,44.76,19.07,51.94a75.16,75.16,0,0,0-7.4,6.47,5.69,5.69,0,0,0,8,8,62.62,62.62,0,0,1,88.56,0,5.69,5.69,0,1,0,8-8Z" fill="url(#linear-gradient)"/>
      <path d="M43.87,90.61a5.7,5.7,0,1,0,8.06,8,17.47,17.47,0,0,1,24.15,0,5.69,5.69,0,0,0,8,0,5.7,5.7,0,0,0,0-8C73.35,79.85,54.61,79.86,43.87,90.61Z" fill="url(#linear-gradient-2)"/>
      <circle cx="64" cy="110.73" r="8.54" fill="url(#linear-gradient-3)"/>
      <path d="M64,59.5a50.89,50.89,0,0,0-36.23,15,5.69,5.69,0,0,0,8.05,8,39.85,39.85,0,0,1,56.35,0,5.69,5.69,0,0,0,8-8A50.83,50.83,0,0,0,64,59.5Z" fill="url(#linear-gradient-4)"/>
    </g>
    <g>
      <path d="M34.6,54.66a1.74,1.74,0,0,1-1.49-.83L30.2,49.08A.23.23,0,0,0,30,49l-.82,0-.8,0h0a.26.26,0,0,0-.23.12l-2.9,4.73a1.72,1.72,0,0,1-2.16.7l-7.76-3.21a1.73,1.73,0,0,1-1-2l1.29-5.41a.26.26,0,0,0-.08-.24c-.39-.36-.77-.74-1.13-1.13a.28.28,0,0,0-.19-.09l-5.46,1.3a1.92,1.92,0,0,1-.41.05A1.74,1.74,0,0,1,6.7,42.69L3.48,34.92a1.73,1.73,0,0,1,.7-2.15l4.74-2.91A.24.24,0,0,0,9,29.63c0-.53,0-1.07,0-1.6a.25.25,0,0,0-.11-.23L4.18,24.89a1.74,1.74,0,0,1-.7-2.15L6.7,15a1.74,1.74,0,0,1,1.61-1.08,1.83,1.83,0,0,1,.4,0l5.42,1.3h0a.23.23,0,0,0,.2-.08c.37-.39.74-.77,1.14-1.14a.24.24,0,0,0,.08-.24L14.29,8.37a1.73,1.73,0,0,1,1-2l7.76-3.21a1.72,1.72,0,0,1,2.15.69l2.92,4.75a.24.24,0,0,0,.21.11l.82,0,.8,0h0a.24.24,0,0,0,.22-.11l2.91-4.74a1.76,1.76,0,0,1,2.16-.7L43,6.35a1.74,1.74,0,0,1,1,2l-1.29,5.41a.24.24,0,0,0,.08.24c.39.36.77.74,1.13,1.14a.27.27,0,0,0,.19.08l5.46-1.3a1.84,1.84,0,0,1,.41,0A1.73,1.73,0,0,1,51.65,15l3.22,7.77a1.74,1.74,0,0,1-.7,2.15L49.43,27.8a.23.23,0,0,0-.11.23c0,.54,0,1.07,0,1.6a.22.22,0,0,0,.11.23l4.74,2.91a1.75,1.75,0,0,1,.7,2.16l-3.22,7.76A1.74,1.74,0,0,1,50,43.77h0a1.84,1.84,0,0,1-.41-.05l-5.41-1.3h0a.23.23,0,0,0-.2.08c-.37.4-.75.77-1.14,1.14a.26.26,0,0,0-.08.24l1.29,5.41a1.74,1.74,0,0,1-1,2l-7.76,3.21A1.75,1.75,0,0,1,34.6,54.66Zm-5.43-36a10.21,10.21,0,1,0,3.91,19.63,10.2,10.2,0,0,0-3.91-19.63Z" fill="#32141e"/>
      <path d="M23.75,3.75a1,1,0,0,1,.85.48L27.51,9a1,1,0,0,0,.85.47h0l.78,0,.77,0h0A1,1,0,0,0,30.84,9l2.91-4.74a1,1,0,0,1,.85-.48,1,1,0,0,1,.38.08l7.77,3.22a1,1,0,0,1,.58,1.15L42,13.61a1,1,0,0,0,.3,1c.38.35.74.71,1.09,1.09a1,1,0,0,0,.74.33l.23,0,5.41-1.3a.85.85,0,0,1,.23,0,1,1,0,0,1,.92.62L54.18,23a1,1,0,0,1-.4,1.24L49,27.16a1,1,0,0,0-.47.9c0,.52,0,1,0,1.54a1,1,0,0,0,.47.9l4.74,2.91a1,1,0,0,1,.4,1.23L51,42.4A1,1,0,0,1,50,43a.85.85,0,0,1-.23,0L44.39,41.7a.83.83,0,0,0-.22,0,1,1,0,0,0-.73.33c-.35.37-.72.74-1.1,1.09a1,1,0,0,0-.3,1l1.29,5.4a1,1,0,0,1-.58,1.16L35,53.83a1,1,0,0,1-1.23-.39l-2.91-4.75a1,1,0,0,0-.85-.47h0l-.78,0-.77,0h0a1,1,0,0,0-.85.47L24.6,53.43a1,1,0,0,1-1.23.4L15.6,50.62A1,1,0,0,1,15,49.46l1.3-5.4a1,1,0,0,0-.3-1c-.38-.35-.74-.71-1.09-1.09a1,1,0,0,0-.74-.33.85.85,0,0,0-.23,0L8.54,43a.91.91,0,0,1-.23,0,1,1,0,0,1-.92-.62L4.17,34.64a1,1,0,0,1,.4-1.23L9.31,30.5a1,1,0,0,0,.47-.9c0-.51,0-1,0-1.54a1,1,0,0,0-.47-.9l-4.74-2.9A1,1,0,0,1,4.17,23l3.22-7.76a1,1,0,0,1,.92-.62l.23,0L14,16l.23,0a1,1,0,0,0,.73-.33c.35-.37.72-.74,1.1-1.09a1,1,0,0,0,.3-1L15,8.2a1,1,0,0,1,.59-1.15l7.77-3.22a1,1,0,0,1,.38-.08m5.43,36a11,11,0,0,0,0-21.9A10.94,10.94,0,0,0,19.06,33a10.94,10.94,0,0,0,10.12,6.76M23.75,2.26h0a2.45,2.45,0,0,0-1,.19L15,5.66a2.49,2.49,0,0,0-1.47,2.89l1.22,5.12-.77.77L9.49,13.36l-.6-.15a2.86,2.86,0,0,0-.58-.06A2.47,2.47,0,0,0,6,14.69L2.79,22.45a2.48,2.48,0,0,0,1,3.08l4.49,2.75c0,.37,0,.73,0,1.1L3.79,32.13a2.49,2.49,0,0,0-1,3.08L6,43a2.48,2.48,0,0,0,2.3,1.54,2.87,2.87,0,0,0,.58-.07L14,43.22c.25.27.51.52.77.78l-1.22,5.11A2.48,2.48,0,0,0,15,52l7.76,3.21a2.45,2.45,0,0,0,1,.19,2.5,2.5,0,0,0,2.12-1.18l2.76-4.49h1.09l2.14,3.49.62,1a2.48,2.48,0,0,0,2.12,1.19,2.38,2.38,0,0,0,.95-.2L43.32,52a2.48,2.48,0,0,0,1.47-2.89L43.56,44l.78-.78,5.12,1.23a2.79,2.79,0,0,0,.58.07A2.49,2.49,0,0,0,52.34,43l3.22-7.77a2.49,2.49,0,0,0-1-3.08l-4.49-2.75c0-.36,0-.73,0-1.1l4.49-2.75a2.48,2.48,0,0,0,1-3.08l-3.22-7.76A2.48,2.48,0,0,0,50,13.15a2.25,2.25,0,0,0-.58.07l-5.12,1.22c-.25-.26-.51-.52-.78-.77l1.23-5.12a2.49,2.49,0,0,0-1.47-2.89L35.55,2.45a2.37,2.37,0,0,0-.95-.19,2.5,2.5,0,0,0-2.13,1.19L29.72,7.93H28.63L26.91,5.14l-1-1.7a2.47,2.47,0,0,0-2.12-1.18Zm5.43,36a9.46,9.46,0,1,1,3.61-.72,9.43,9.43,0,0,1-3.61.72Z" fill="#fff"/>
    </g>
  </g>
</svg>
