<svg xmlns="http://www.w3.org/2000/svg" xmlns:xlink="http://www.w3.org/1999/xlink" viewBox="0 0 86 84"><defs><linearGradient id="CH_Pink_to_Yellow" x1="63.79" y1="65.96" x2="22.16" y2="24.34" gradientUnits="userSpaceOnUse"><stop offset="0" stop-color="#ed0973"/><stop offset="1" stop-color="#ffcc40"/></linearGradient><linearGradient id="CH_Pink_to_Yellow-2" x1="62.86" y1="66.89" x2="21.24" y2="25.26" xlink:href="#CH_Pink_to_Yellow"/><linearGradient id="CH_Pink_to_Yellow-3" x1="75.23" y1="54.52" x2="33.61" y2="12.89" xlink:href="#CH_Pink_to_Yellow"/><linearGradient id="CH_Pink_to_Yellow-4" x1="80.59" y1="49.16" x2="38.96" y2="7.53" xlink:href="#CH_Pink_to_Yellow"/><linearGradient id="CH_Pink_to_Yellow-5" x1="55.94" y1="73.81" x2="14.31" y2="32.18" xlink:href="#CH_Pink_to_Yellow"/></defs><title>footer_logo</title><g id="Layer_2" data-name="Layer 2"><path d="M43.8,6.88a3,3,0,1,0-4.62,2.51L39,18.21a.5.5,0,0,1-.46.47A24.33,24.33,0,0,0,15.68,40.36a.5.5,0,0,1-.49.44l-8.82-.23a3,3,0,1,0-.08,3l11.78.3a.48.48,0,0,0,.49-.47l0-1A21.27,21.27,0,0,1,40.39,21.69l1,0a.48.48,0,0,0,.49-.47l.3-11.77A3,3,0,0,0,43.8,6.88Z" style="fill:url(#CH_Pink_to_Yellow)"/><path d="M76.06,40.83a3,3,0,0,0-2.66,1.45L61.62,42a.48.48,0,0,0-.49.47l0,1A21.25,21.25,0,0,1,39.3,64.2l-1,0a.48.48,0,0,0-.49.47l-.3,11.77a3,3,0,1,0,3,.08l.22-8.82a.5.5,0,0,1,.46-.47A24.33,24.33,0,0,0,64,45.53a.5.5,0,0,1,.49-.44l8.82.23a3,3,0,1,0,2.74-4.49Z" style="fill:url(#CH_Pink_to_Yellow-2)"/><path d="M32.08,32.31a3.52,3.52,0,1,0,3,1.81L48.45,21.39a.45.45,0,0,1,.35-.13l17.06.43a2.24,2.24,0,0,0,2,1.42A2.27,2.27,0,0,0,70.17,21a2.23,2.23,0,0,0-4.25-1.06l-17.81-.46a.49.49,0,0,0-.34.14L33.85,32.85A3.48,3.48,0,0,0,32.08,32.31Z" style="fill:url(#CH_Pink_to_Yellow-3)"/><path d="M56,27.5l-6,5.76a3.49,3.49,0,1,0,1.21,1.27l5.53-5.26a.47.47,0,0,1,.34-.13l22.78.58a2.22,2.22,0,0,0,2.13,1.57,2.26,2.26,0,0,0,2.22-2.11A2.23,2.23,0,0,0,80,28l-23.64-.6A.47.47,0,0,0,56,27.5Z" style="fill:url(#CH_Pink_to_Yellow-4)"/><path d="M50.49,51.54h.17a2.09,2.09,0,1,0-2-2.14A2.17,2.17,0,0,0,49,50.64a12,12,0,0,1-9.61,5c-4.17-.11-7.61-3.06-9.3-5.45A2.07,2.07,0,0,0,30.5,49a2.09,2.09,0,0,0-4-1L13.7,47.64a2.23,2.23,0,0,0-4.32.71,2.23,2.23,0,0,0,4.23,1l12.88.33A2.09,2.09,0,0,0,28.36,51h.14a14.76,14.76,0,0,0,3.39,3.47,12.9,12.9,0,0,0,7.43,2.91A13.85,13.85,0,0,0,50.49,51.54Z" style="fill:url(#CH_Pink_to_Yellow-5)"/><path d="M43.78,5.24a3,3,0,1,0-4.56,2.62v8.83a.47.47,0,0,1-.44.47A24.35,24.35,0,0,0,16.52,39.43a.48.48,0,0,1-.48.44H7.22a3,3,0,1,0,0,3H19a.49.49,0,0,0,.48-.48v-1A21.26,21.26,0,0,1,40.74,20.12h1a.47.47,0,0,0,.48-.48V7.86A3,3,0,0,0,43.78,5.24Z" style="fill:#32141e"/><path d="M76.9,38.35a3,3,0,0,0-2.63,1.52H62.49a.48.48,0,0,0-.48.48v1A21.27,21.27,0,0,1,40.74,62.66h-1a.48.48,0,0,0-.48.48V74.91a3,3,0,1,0,3,0V66.09a.48.48,0,0,1,.45-.47A24.36,24.36,0,0,0,65,43.35a.48.48,0,0,1,.48-.44h8.82a3,3,0,1,0,2.63-4.56Z" style="fill:#32141e"/><path d="M32.71,31a3.52,3.52,0,1,0,3,1.73L48.8,19.62a.48.48,0,0,1,.34-.14H66.21a2.23,2.23,0,1,0,0-1.75H48.41a.48.48,0,0,0-.34.14L34.49,31.45A3.47,3.47,0,0,0,32.71,31Z" style="fill:#32141e"/><path d="M56.47,25.54l-5.9,5.91A3.51,3.51,0,1,0,52.26,35a3.48,3.48,0,0,0-.45-2.27l5.39-5.4a.48.48,0,0,1,.34-.14H80.33a2.21,2.21,0,0,0,2.17,1.51,2.23,2.23,0,1,0-2-3.26H56.81A.49.49,0,0,0,56.47,25.54Z" style="fill:#32141e"/><path d="M51.61,49.71h.16a2.1,2.1,0,1,0-2.09-2.09,2,2,0,0,0,.4,1.21,12,12,0,0,1-9.49,5.22c-4.17,0-7.68-2.86-9.44-5.21a2,2,0,0,0,.41-1.22,2.1,2.1,0,0,0-2.1-2.1,2.08,2.08,0,0,0-1.89,1.22H14.73a2.23,2.23,0,1,0-.05,1.75H27.57a2.08,2.08,0,0,0,1.89,1.22h.14a14.84,14.84,0,0,0,3.49,3.38,12.9,12.9,0,0,0,7.5,2.72A13.87,13.87,0,0,0,51.61,49.71Z" style="fill:#32141e"/></g></svg>