<svg id="Layer_1" data-name="Layer 1" xmlns="http://www.w3.org/2000/svg" viewBox="0 0 64 64"><title>small_white_logo</title><path d="M32.5,5a2.27,2.27,0,1,0-3.4,2v6.58a.36.36,0,0,1-.33.36A18.16,18.16,0,0,0,12.16,30.54a.35.35,0,0,1-.35.33H5.23a2.27,2.27,0,1,0,0,2.26H14a.36.36,0,0,0,.36-.35V32A15.86,15.86,0,0,1,30.24,16.14H31a.36.36,0,0,0,.36-.36V7A2.25,2.25,0,0,0,32.5,5Z" style="fill:#fff"/><path d="M57.21,29.73a2.26,2.26,0,0,0-2,1.14H46.46a.36.36,0,0,0-.36.35V32A15.86,15.86,0,0,1,30.24,47.86h-.78a.36.36,0,0,0-.36.36V57a2.27,2.27,0,1,0,2.27,0V50.43a.36.36,0,0,1,.33-.36A18.16,18.16,0,0,0,48.31,33.46a.36.36,0,0,1,.35-.33h6.59a2.26,2.26,0,1,0,2-3.4Z" style="fill:#fff"/><path d="M24.25,24.22a2.61,2.61,0,1,0,2.25,1.29l9.75-9.75a.32.32,0,0,1,.25-.1H49.23a1.66,1.66,0,0,0,1.49,1,1.66,1.66,0,1,0-1.48-2.32H36a.4.4,0,0,0-.26.1L25.57,24.58A2.59,2.59,0,0,0,24.25,24.22Z" style="fill:#fff"/><path d="M42,20.17l-4.41,4.41a2.67,2.67,0,0,0-1.69-.34,2.64,2.64,0,0,0-2.23,2.27,2.62,2.62,0,0,0,5.19.7,2.64,2.64,0,0,0-.34-1.7l4-4a.4.4,0,0,1,.26-.1h17a1.67,1.67,0,0,0,1.62,1.13A1.7,1.7,0,0,0,63,20.89a1.66,1.66,0,0,0-3.13-.82H42.22A.39.39,0,0,0,42,20.17Z" style="fill:#fff"/><path d="M38.34,38.21h.12a1.56,1.56,0,1,0-1.56-1.56,1.51,1.51,0,0,0,.3.91,9,9,0,0,1-7.08,3.89c-3.11,0-5.73-2.13-7-3.88a1.54,1.54,0,0,0,.3-.92,1.56,1.56,0,0,0-1.56-1.56,1.55,1.55,0,0,0-1.41.91H10.83a1.66,1.66,0,1,0,0,1.31h9.62a1.55,1.55,0,0,0,1.41.9h.11a10.62,10.62,0,0,0,2.6,2.52,9.61,9.61,0,0,0,5.59,2A10.34,10.34,0,0,0,38.34,38.21Z" style="fill:#fff"/></svg>