<svg xmlns="http://www.w3.org/2000/svg" xmlns:xlink="http://www.w3.org/1999/xlink" viewBox="0 0 128 128"><defs><linearGradient id="linear-gradient" x1="88.57" y1="124.02" x2="49.9" y2="2.68" gradientUnits="userSpaceOnUse"><stop offset="0" stop-color="#ed0973"/><stop offset="1" stop-color="#ffcc40"/></linearGradient><linearGradient id="linear-gradient-2" x1="92.71" y1="122.7" x2="54.04" y2="1.36" xlink:href="#linear-gradient"/><linearGradient id="linear-gradient-3" x1="96.09" y1="121.62" x2="57.43" y2="0.29" xlink:href="#linear-gradient"/><linearGradient id="linear-gradient-4" x1="98.73" y1="120.78" x2="60.06" y2="-0.55" xlink:href="#linear-gradient"/><linearGradient id="linear-gradient-5" x1="100.8" y1="120.12" x2="62.13" y2="-1.21" xlink:href="#linear-gradient"/><linearGradient id="linear-gradient-6" x1="79.36" y1="126.95" x2="40.7" y2="5.62" xlink:href="#linear-gradient"/><linearGradient id="linear-gradient-7" x1="68.22" y1="130.5" x2="29.55" y2="9.17" xlink:href="#linear-gradient"/></defs><title>software_update</title><g id="Layer_2" data-name="Layer 2"><rect x="58.8" y="41.72" width="10.41" height="10.41" style="fill:url(#linear-gradient)"/><rect x="58.8" y="28.71" width="10.41" height="7.8" style="fill:url(#linear-gradient-2)"/><rect x="58.8" y="18.31" width="10.41" height="5.2" style="fill:url(#linear-gradient-3)"/><rect x="58.8" y="10.5" width="10.41" height="2.6" style="fill:url(#linear-gradient-4)"/><rect x="58.8" y="4" width="10.41" height="1.3" style="fill:url(#linear-gradient-5)"/><polygon points="89.94 78.74 69.2 78.74 69.2 57.33 58.8 57.33 58.8 78.74 38.06 78.74 64 111.63 89.94 78.74" style="fill:url(#linear-gradient-6)"/><rect x="37.98" y="110.63" width="52.03" height="13.28" style="fill:url(#linear-gradient-7)"/></g></svg>